<?xml version="1.0" encoding="iso-8859-1"?>
<!-- Generator: Adobe Illustrator 19.0.1, SVG Export Plug-In . SVG Version: 6.00 Build 0)  -->
<svg version="1.1" xmlns="http://www.w3.org/2000/svg" xmlns:xlink="http://www.w3.org/1999/xlink" x="0px" y="0px"
	 viewBox="0 0 128 128" style="enable-background:new 0 0 128 128;" xml:space="preserve">
<g id="_x31_4">
	<path id="icon_3_" style="fill:#262626;" d="M85.239,24.707c-1.61-3-4.458-4.56-7.288-5.356l5.068-17.612
		c-4.949-4.916-10.272,2.153-18.052,2.153c-17.831,0-40.646,14.628-33.612,50.765c0.017,0.152,0.034,0.305,0.068,0.475
		c1.203,6.153,5.221,11.577,6.831,16.103c5.254,14.797-1.759,22.899-2.471,25.747h-1.852c-2.865,0-5.17,2.305-5.17,5.17v7.763
		h-2.593c-2.865,0-5.17,2.305-5.17,5.153V128h74.987v-12.933c0-2.848-2.305-5.153-5.17-5.153h-2.576v-7.763
		c0-2.865-2.322-5.17-5.187-5.17h-3.238c12.696-16.119-6.865-36.273-9.695-39.053c-0.22-0.203-0.339-0.322-0.339-0.322
		s0.119,0.017,0.339,0.034c1.542,0.136,7.865,0.508,9.916-2.017c2.339-2.882,8.272,0.356,11.679,3.78
		c3.407,3.407,9.17-3.966,9.712-6.305c0.525-2.322,1.966-0.712,5.56-3.288C107.528,42.03,94.409,30.826,85.239,24.707z
		 M64.678,12.367c-7.255,0-14.272,3.271-18.781,8.746c-5.458,6.628-7.17,16.153-4.949,27.595c0.034,0.152,0.034,0.22,0.051,0.271
		l-3.288,0.814c-0.051-0.187-0.085-0.373-0.102-0.542c-3.034-15.645,1.407-25.12,5.661-30.29c5.153-6.255,13.153-9.984,21.408-9.984
		V12.367z M77.052,33.877c-2.119,0-3.848-1.712-3.848-3.848c0-2.119,1.729-3.848,3.848-3.848S80.9,27.91,80.9,30.029
		C80.9,32.165,79.171,33.877,77.052,33.877z"/>
</g>
<g id="Layer_1">
</g>
</svg>
