<svg xmlns="http://www.w3.org/2000/svg" viewBox="0 0 48 48"><title>Chess horse</title><g id="Chess_horse" data-name="Chess horse"><path d="M37,42V41a3,3,0,0,0-3-3c.16-1.79,1.12-2,5.42-4.11.86-.43.57-.32,0-14.76a14.88,14.88,0,0,0-11.88-14A12.74,12.74,0,0,0,20.24,0,1,1,0,0,0,19,1.2l.78,3.88a9.31,9.31,0,0,0-7.65,6.3L8.29,15.29A1,1,0,0,0,8.2,16.6c3.16,4.22,3.18,4.56,4,4.38l8.5-1.7c-1.18,4-4.65,7.18-6.76,8.82C11.63,29.89,12,32.12,12,35c0,1.15,1.78.91,2,3a3,3,0,0,0-3,3v1a3,3,0,0,0-3,3v2a1,1,0,0,0,1,1H39a1,1,0,0,0,1-1V45A3,3,0,0,0,37,42ZM15.17,29.68c2.59-2,7.06-6.19,7.82-11.54A1,1,0,0,0,21.8,17L12.42,18.9l-2.1-2.81C14,12.46,13.84,12.64,14,12.32A7.33,7.33,0,0,1,21,7a1,1,0,0,0,1-1.2l-.66-3.31c4.12,1.75,4.4,4.29,5.5,4.49a12.89,12.89,0,0,1,9.73,8l-2.18-.87a1,1,0,0,0-.74,1.86l3.6,1.44a14,14,0,0,1,.22,1.84c0,.13.37.24-3.08-1.14a1,1,0,0,0-.74,1.86l3.91,1.56.07,1.88-3.24-1.3a1,1,0,0,0-.74,1.86l4.07,1.63.08,1.88-3.41-1.37a1,1,0,0,0-.74,1.86l4.23,1.7.08,1.87-3.57-1.43a1,1,0,0,0-.74,1.86l2.93,1.17c-1.93,1-4.4,1.8-4.55,4.9H16a4.59,4.59,0,0,0-2-3.57C14,32.33,13.71,30.81,15.17,29.68ZM13,41a1,1,0,0,1,1-1H34a1,1,0,0,1,1,1v1H13Zm25,5H10V45a1,1,0,0,1,1-1H37a1,1,0,0,1,1,1Z"/><path d="M18.29,10.29A1,1,0,0,0,19,12a1,1,0,0,0,1-1A1,1,0,0,0,18.29,10.29Z"/></g></svg>